<svg xmlns="http://www.w3.org/2000/svg" id="Layer_2" data-name="Layer 2" viewBox="0 0 478.04 178.47"><defs><style>      .cls-1 {        fill: #dee9f7;      }      .cls-1, .cls-2, .cls-3, .cls-4, .cls-5, .cls-6, .cls-7 {        stroke-width: 0px;      }      .cls-2 {        fill: #f4f7f9;      }      .cls-3 {        fill: #8daed9;      }      .cls-4 {        fill: #1893d2;      }      .cls-5 {        fill: #231f20;      }      .cls-6 {        fill: #1f70b8;      }      .cls-7 {        fill: #fff;      }    </style></defs><g id="Layer_1-2" data-name="Layer 1"><g><path class="cls-7" d="M161.84,38.25c1.21,1.67.85,5.41.54,7.23-.04.34-2.42,11.41-2.81,8.64-.42-3.04-9.33-13.44-7.99-10.2,2.73,6.63.14,24.57-.66,22.62-2.8-6.73-5.97-16.62-14.39-15.79-15.39,1.56-33.61,9.42-50.55,15.16-16.16,5.45-31.88,16.64-44.76,19.45C17.18,90.65-1.25,82.56.07,68.45,2.01,47.57,42.97,7.46,76.67,6.87c33.88-.61,54.26-11.88,85.16,31.38"></path><path class="cls-6" d="M105.21,131.1c6.85,2.36,13.93,3.11,21.14,2.91,3.34-.09,6.7-.32,9.94.77,1.09.36,2.38.68,2.57,1.98.21,1.46-1.03,2.16-2.11,2.76-2.79,1.57-5.86,2.25-9.02,2.57-10.62,1.08-20.95-.35-31.07-3.56-.82-.26-1.63-.55-2.46-.77-.35-.09-1.02-.14-1.05-.05-.18.54.35.76.68,1.03,4.24,3.43,8.98,6.08,14.05,8.01,12.13,4.63,24.67,6.41,37.62,4.76.56-.07,1.26-.16,1.67.1.6.37,1.66.38,1.68,1.31.02.76-.79,1.05-1.39,1.28-3.03,1.16-6.28,1.28-9.43,1.79-20.42,3.29-40.28,1.5-59.5-6.54-13.36-5.59-24.62-13.62-32.5-25.95-.84-1.31-1.76-2.59-3.22-3.32-.76,1.72.72,2.78,1.27,4.08,9.17,21.45,25.47,36.13,45.53,47.16,3.58,1.97,7.37,3.58,11.06,5.36.57.28,1.57.49,1.16,1.28-.49.95-1.08-.11-1.64-.26-9.41-2.56-18.55-5.82-27.24-10.28-19.19-9.84-34.57-23.56-44.22-43.09-1.98-4.01-3.58-8.18-4.95-12.44-.18-.57-.1-1.61-.88-1.59-.93.03-.93,1.1-1.03,1.78-.73,5.1.38,10.01,1.67,14.9,1.48,5.62,3.88,10.92,5.74,16.4.25.74,1.05,1.85.15,2.26-.89.4-1.25-.91-1.67-1.6-7.11-11.6-12.54-23.88-15.24-37.27-.12-.6.12-1.66-.74-1.6-.8.05-.37,1.04-.4,1.59-.43,8.37-.41,16.72,1.57,24.95.72,2.98,2.04,5.72,3.11,8.57.34.9,1.09,2.18-.1,2.79-1,.51-1.61-.78-2.18-1.46-3.79-4.53-5.94-9.92-7.76-15.42-5.05-15.34-6.95-30.97-3.2-46.87,3.24-13.77,10.66-25.28,20.28-35.5,12.83-13.63,29.09-21.22,46.72-26.42,10.68-3.15,21.55-4.97,32.73-4.6.83.03,2.26-.52,2.38.56.09.76-1.42.53-2.21.66-18.11,3.07-35.31,8.62-49.87,20.14-11.91,9.42-20.99,21.2-26.62,35.42-.6,1.51-.96,3.09-.93,4.73.02,1.13-.16,2.6,1.14,2.93,1.27.32,1.57-1.18,1.99-2.04,2.71-5.45,5.38-10.91,8.53-16.14,10.09-16.78,25.63-25.19,44.31-28.84.59-.11,1.56-.63,1.77.06.24.77-.89.78-1.43,1.04-9.6,4.58-18.74,9.88-26.55,17.17-9.37,8.74-14.69,19.5-15.49,32.33-.09,1.46-.38,3.69,1.27,3.96,1.24.2,1.79-1.98,2.29-3.35,1.79-4.92,3.68-9.78,6.11-14.43,5.8-11.08,14.91-18.32,26.49-22.68,1.33-.5,2.77-.7,4.17-.99.4-.09,1.03-.46,1.17.22.12.58-.59.65-.98.83-2.35,1.07-4.6,2.3-6.65,3.88-2.66,2.7-5.67,5.04-8.16,7.91-6.9,7.93-9.35,16.98-6.94,27.29,2.54,10.84,7.95,20.05,15.67,28,7.97,8.19,17.32,14.22,28.17,17.94,1.09.37,2.06.97,3.02,1.6"></path><path class="cls-1" d="M105.21,131.1c-10.63-2.84-19.84-8.25-28-15.48-9.04-8.01-15.54-17.67-18.92-29.34-4.05-13.96-.04-25.43,10.78-34.8,1.35-1.17,2.63-2.5,4.39-3.12.24.8-1.36,1.14-.64,1.86.5.51,1.17-.31,1.77-.52,8.8-3.13,17.77-3.94,26.94-1.94.02.3-.74.49-.37.58,16.63,4.04,27.87,14.24,34.35,29.81.71,1.71,2.36,3.43,1.02,5.58-.35-.41-.87-1.24-1.01-1.18-1.17.49-.84,1.66-.65,2.45,1.19,4.96.16,9.74-.93,14.54-2.23,9.85-7.9,17.61-15.56,23.79-3.57,2.88-7.77,5.31-12.4,6.51-.87.23-1.18.42-.77,1.25"></path><path class="cls-3" d="M136.54,83.74c-.87-4.52-2.73-8.65-5.14-12.53-7.18-11.57-17.27-19.2-30.68-22.31-.53-.12-1-.46-1.51-.7.67-.71,1.56-.18,2.31-.42,5.89,1.08,11.85,1.92,16.99,5.35.66.44,1.53.73,2.05-.01.55-.79-.47-1.09-.88-1.48-5.15-4.96-10.7-9.36-17.35-12.21-.41-.18-1.1-.72-1.06-.78.4-.74.93-.09,1.39,0,5.07.9,10.1,1.92,14.53,4.77.39.25,1.04.82,1.52.18.61-.81-.35-1.23-.72-1.58-3.69-3.53-8.15-5.88-12.81-7.84-1.83-.77-3.81-1.16-5.73-1.73-.61-.18-1.36-.08-1.66-.86.63-.11,1.25-.23,1.88-.32,7.75-1.1,15.37-.83,22.75,2.09.37.14.79.33.88-.16.05-.27-.25-.71-.51-.93-2.72-2.31-5.88-3.85-9.19-5.12-.33-.13-.65-.29-.97-.44.37-.05.75-.17,1.12-.13,3.77.41,7.59.54,11.21,1.87.53.19,1.41.77,1.76.11.33-.64-.6-1.08-1.05-1.52-1.76-1.71-4.06-2.43-6.29-3.26-.34-.13-.96-.37-.95-.44.14-.64.73-.35,1.08-.32,9.24.72,18.43,1.66,26.48,6.93.71.46,1.57,1.73,2.39.73.62-.76-.43-1.7-1.04-2.38-7.6-8.5-17.4-13.05-28.32-15.52-4.93-1.12-9.93-1.77-15.02-1.6-.53.02-1.46.22-1.48-.36-.04-1.02.98-.59,1.53-.61,4.96-.19,9.89.16,14.82.61.75.07,1.53.35,2.08-.44.71-.7,1.58-.65,2.38-.34,5.37,2.1,11.21,2.69,16.47,5.18,1.58.75,2.93,2.13,4.85,2.14,8.18,6.28,15.82,13.06,20.96,22.18.16.29.16.68.23,1.02-.27-.19-.59-.34-.81-.59-3.04-3.56-6.49-6.67-10.41-9.25-.44-.29-.91-1-1.44-.54-.59.52.17.99.44,1.42,2.71,4.36,3.03,4.17,5.13,8.87.97,2.16,1.48,12.82.68,11.15-1.03-2.14-2.99-6.56-4.46-8.49-3.74-4.9-8.65-7.36-14.71-9.62-.49-.18-1.1-.81-1.5-.15-.34.56,3.25,2.89,3.64,3.26,3.43,3.21,5.78,4.96,7.15,9.09.8,2.42,2.22,22.58,1.44,21.16-.65-1.19-4.05-16.46-5.33-15.3.54,1.82,5.71,19.6,2.63,22.76-.74-2.98-8.57-22.71-10.26-24.69-3.08-3.59-6.55-6.88-10.85-9.11-.24-.12-.46-.3-.65-.51.1.28.38.38.59.54,8.68,7.26,12.75,17.01,15.12,27.69.33,1.48.65,2.96,1.07,4.43.45,5.84.34,11.7.42,17.54.01.94-.06,1.9-.87,2.59-.77,1.82-1.51,3.65-2.31,5.45-.21.47-.37,1.24-1.08,1.11-.75-.14-.48-.91-.55-1.42-.57-4.78-.85-9.61-2.43-14.21"></path><path class="cls-6" d="M144.69,17.35c-1.04,1.36-1.89.05-2.64-.31-6.69-3.28-13.96-4.71-21.07-6.67-10.89-3.37-22.07-4.37-33.38-3.8-20.18,1.02-38.47,7.43-54.66,19.55-13.39,10.02-23.39,22.79-30.65,37.75-.21.42-.43.84-.62,1.27-.19.43-.36,1.03-.94.79-.54-.23-.28-.72-.11-1.2,3.64-9.96,8.21-19.46,14.83-27.82C37.53,9.03,66.61-2.71,101.83.52c15.82,1.45,30.16,7.22,42.86,16.82"></path><path class="cls-2" d="M141.75,54.42c.12,7.02,3.94,22.91,1.98,29.64-1.53-4.54-3.45-21.73-5.28-26.19-2.85-6.94-6.71-13.09-12.89-17.6-.37-.27-1.22-.61-.69-1.21.4-.47,1.04.07,1.55.3,5.22,2.36,9.27,6.24,12.84,10.5,1.17,1.4,1.61,3.87,2.49,4.57"></path><path class="cls-5" d="M145.76,131.18h2.71c2.83,0,4.63-1.34,4.63-3.37,0-2.29-1.92-3.28-4.72-3.31-1.28,0-2.19.11-2.62.21v6.47ZM143.11,123.11c1.34-.24,3.26-.37,5.09-.37,2.83,0,4.66.45,5.94,1.45,1.04.79,1.62,2,1.62,3.36,0,2.34-1.71,3.89-3.87,4.52v.08c1.58.47,2.53,1.73,3.02,3.57.67,2.47,1.16,4.18,1.58,4.86h-2.74c-.34-.5-.79-2.02-1.37-4.23-.61-2.44-1.71-3.36-4.11-3.44h-2.5v7.68h-2.65v-17.48Z"></path><polygon class="cls-5" points="169.68 132.28 161.7 132.28 161.7 138.67 170.6 138.67 170.6 140.59 159.05 140.59 159.05 122.87 170.14 122.87 170.14 124.79 161.7 124.79 161.7 130.39 169.68 130.39 169.68 132.28"></polygon><path class="cls-5" d="M189.22,139.8c-1.19.37-3.54.97-6.31.97-3.11,0-5.67-.68-7.68-2.34-1.77-1.47-2.86-3.84-2.86-6.6.03-5.28,4.24-9.15,11.12-9.15,2.38,0,4.24.45,5.12.82l-.64,1.87c-1.1-.42-2.47-.76-4.54-.76-5,0-8.26,2.68-8.26,7.12s3.14,7.15,7.92,7.15c1.74,0,2.93-.21,3.54-.47v-5.28h-4.18v-1.84h6.76v8.52Z"></path><path class="cls-5" d="M195.47,122.87v10.49c0,3.97,2.04,5.65,4.78,5.65,3.05,0,5-1.73,5-5.65v-10.49h2.68v10.33c0,5.44-3.32,7.68-7.77,7.68-4.2,0-7.37-2.08-7.37-7.57v-10.44h2.68Z"></path><polygon class="cls-5" points="212.08 122.87 214.73 122.87 214.73 138.67 223.51 138.67 223.51 140.59 212.08 140.59 212.08 122.87"></polygon><path class="cls-5" d="M236.07,133.23l-2.01-5.1c-.46-1.16-.76-2.21-1.07-3.23h-.06c-.31,1.05-.64,2.13-1.04,3.21l-2.01,5.13h6.18ZM229.33,135.02l-2.13,5.57h-2.74l6.98-17.72h3.2l7.01,17.72h-2.83l-2.19-5.57h-7.28Z"></path><polygon class="cls-5" points="245.76 124.82 239.51 124.82 239.51 122.87 254.72 122.87 254.72 124.82 248.44 124.82 248.44 140.59 245.76 140.59 245.76 124.82"></polygon><path class="cls-5" d="M257.34,131.83c0,3.79,2.38,7.18,6.55,7.18s6.58-3.34,6.58-7.36c0-3.52-2.13-7.2-6.55-7.2s-6.58,3.5-6.58,7.39M273.28,131.55c0,6.1-4.3,9.33-9.54,9.33s-9.23-3.63-9.23-8.99c0-5.62,4.05-9.31,9.54-9.31s9.23,3.71,9.23,8.96"></path><path class="cls-5" d="M278.92,131.18h2.71c2.83,0,4.63-1.34,4.63-3.37,0-2.29-1.92-3.28-4.72-3.31-1.28,0-2.19.11-2.62.21v6.47ZM276.27,123.11c1.34-.24,3.26-.37,5.09-.37,2.83,0,4.66.45,5.94,1.45,1.04.79,1.61,2,1.61,3.36,0,2.34-1.71,3.89-3.87,4.52v.08c1.58.47,2.53,1.73,3.02,3.57.67,2.47,1.16,4.18,1.59,4.86h-2.74c-.33-.5-.79-2.02-1.37-4.23-.61-2.44-1.71-3.36-4.11-3.44h-2.5v7.68h-2.65v-17.48Z"></path><path class="cls-5" d="M291.85,137.8c1.19.63,2.92,1.16,4.75,1.16,2.71,0,4.3-1.24,4.3-3.02,0-1.66-1.1-2.6-3.87-3.52-3.35-1.02-5.42-2.52-5.42-5.02,0-2.76,2.65-4.81,6.64-4.81,2.1,0,3.63.42,4.54.87l-.73,1.87c-.67-.32-2.04-.84-3.9-.84-2.8,0-3.87,1.45-3.87,2.65,0,1.66,1.25,2.47,4.08,3.42,3.47,1.16,5.24,2.6,5.24,5.21,0,2.73-2.35,5.1-7.19,5.1-1.98,0-4.14-.5-5.24-1.13l.67-1.92Z"></path><path class="cls-5" d="M322.84,133.23l-2.01-5.1c-.46-1.16-.76-2.21-1.07-3.23h-.06c-.31,1.05-.64,2.13-1.04,3.21l-2.01,5.13h6.18ZM316.11,135.02l-2.13,5.57h-2.74l6.98-17.72h3.2l7.01,17.72h-2.83l-2.19-5.57h-7.28Z"></path><path class="cls-5" d="M330.62,137.8c1.19.63,2.92,1.16,4.75,1.16,2.71,0,4.3-1.24,4.3-3.02,0-1.66-1.1-2.6-3.87-3.52-3.35-1.02-5.42-2.52-5.42-5.02,0-2.76,2.65-4.81,6.64-4.81,2.1,0,3.63.42,4.54.87l-.73,1.87c-.67-.32-2.04-.84-3.9-.84-2.8,0-3.87,1.45-3.87,2.65,0,1.66,1.25,2.47,4.08,3.42,3.47,1.16,5.24,2.6,5.24,5.21,0,2.73-2.35,5.1-7.19,5.1-1.98,0-4.14-.5-5.24-1.13l.67-1.92Z"></path><path class="cls-5" d="M345.19,137.8c1.19.63,2.92,1.16,4.75,1.16,2.71,0,4.3-1.24,4.3-3.02,0-1.66-1.1-2.6-3.87-3.52-3.35-1.02-5.42-2.52-5.42-5.02,0-2.76,2.65-4.81,6.64-4.81,2.1,0,3.63.42,4.54.87l-.73,1.87c-.67-.32-2.04-.84-3.9-.84-2.8,0-3.87,1.45-3.87,2.65,0,1.66,1.25,2.47,4.08,3.42,3.47,1.16,5.24,2.6,5.24,5.21,0,2.73-2.35,5.1-7.19,5.1-1.98,0-4.14-.5-5.24-1.13l.67-1.92Z"></path><path class="cls-5" d="M361.73,131.83c0,3.79,2.38,7.18,6.55,7.18s6.58-3.34,6.58-7.36c0-3.52-2.13-7.2-6.55-7.2s-6.58,3.5-6.58,7.39M377.67,131.55c0,6.1-4.3,9.33-9.54,9.33s-9.23-3.63-9.23-8.99c0-5.62,4.05-9.31,9.54-9.31s9.23,3.71,9.23,8.96"></path><path class="cls-5" d="M395.02,140.01c-.98.42-2.92.84-5.42.84-5.79,0-10.15-3.15-10.15-8.96s4.36-9.31,10.73-9.31c2.56,0,4.17.47,4.88.79l-.64,1.87c-1.01-.42-2.44-.74-4.14-.74-4.82,0-8.01,2.65-8.01,7.31,0,4.34,2.89,7.12,7.89,7.12,1.61,0,3.26-.29,4.33-.74l.55,1.81Z"></path><rect class="cls-5" x="397.88" y="122.87" width="2.65" height="17.72"></rect><path class="cls-5" d="M414.77,133.23l-2.01-5.1c-.46-1.16-.76-2.21-1.07-3.23h-.06c-.3,1.05-.64,2.13-1.04,3.21l-2.01,5.13h6.19ZM408.03,135.02l-2.13,5.57h-2.74l6.98-17.72h3.2l7.01,17.72h-2.83l-2.19-5.57h-7.28Z"></path><polygon class="cls-5" points="424.46 124.82 418.21 124.82 418.21 122.87 433.42 122.87 433.42 124.82 427.14 124.82 427.14 140.59 424.46 140.59 424.46 124.82"></polygon><rect class="cls-5" x="435.25" y="122.87" width="2.65" height="17.72"></rect><path class="cls-5" d="M443.69,131.83c0,3.79,2.38,7.18,6.55,7.18s6.58-3.34,6.58-7.36c0-3.52-2.13-7.2-6.55-7.2s-6.58,3.5-6.58,7.39M459.63,131.55c0,6.1-4.3,9.33-9.54,9.33s-9.23-3.63-9.23-8.99c0-5.62,4.05-9.31,9.54-9.31s9.23,3.71,9.23,8.96"></path><path class="cls-5" d="M462.62,140.59v-17.72h2.89l6.58,8.96c1.52,2.08,2.71,3.94,3.69,5.76l.06-.03c-.24-2.37-.3-4.52-.3-7.28v-7.41h2.5v17.72h-2.68l-6.52-8.99c-1.43-1.97-2.8-3.99-3.84-5.91l-.09.03c.15,2.23.21,4.36.21,7.31v7.57h-2.5Z"></path><polygon class="cls-4" points="177.94 83.45 151.69 83.45 151.69 107.8 180.94 107.8 180.94 115.11 142.97 115.11 142.97 47.59 179.44 47.59 179.44 54.9 151.69 54.9 151.69 76.24 177.94 76.24 177.94 83.45"></polygon><path class="cls-4" d="M191.36,104.49c3.91,2.4,9.62,4.41,15.63,4.41,8.92,0,14.13-4.71,14.13-11.52,0-6.31-3.61-9.92-12.72-13.42-11.02-3.91-17.83-9.62-17.83-19.14,0-10.52,8.72-18.33,21.84-18.33,6.91,0,11.92,1.6,14.93,3.31l-2.4,7.11c-2.2-1.2-6.71-3.2-12.82-3.2-9.22,0-12.72,5.51-12.72,10.12,0,6.31,4.11,9.42,13.42,13.02,11.42,4.41,17.23,9.92,17.23,19.84,0,10.42-7.71,19.44-23.64,19.44-6.51,0-13.62-1.9-17.23-4.31l2.2-7.31Z"></path><path class="cls-4" d="M275.31,87.06l-6.61-19.43c-1.5-4.41-2.5-8.42-3.51-12.32h-.2c-1,4.01-2.1,8.11-3.41,12.22l-6.61,19.54h20.34ZM253.17,93.87l-7.01,21.24h-9.02l22.94-67.52h10.52l23.04,67.52h-9.32l-7.21-21.24h-23.94Z"></path><path class="cls-4" d="M309.57,115.11l-17.13-67.52h9.22l8.02,34.16c2,8.42,3.81,16.83,5.01,23.34h.2c1.1-6.71,3.21-14.73,5.51-23.44l9.02-34.06h9.12l8.21,34.26c1.9,8.02,3.71,16.03,4.71,23.14h.2c1.4-7.41,3.31-14.93,5.41-23.34l8.92-34.06h8.92l-19.14,67.52h-9.11l-8.52-35.16c-2.1-8.62-3.51-15.23-4.41-22.04h-.2c-1.2,6.71-2.7,13.32-5.21,22.04l-9.62,35.16h-9.12Z"></path><path class="cls-4" d="M410.94,87.06l-6.61-19.43c-1.5-4.41-2.5-8.42-3.51-12.32h-.2c-1,4.01-2.1,8.11-3.41,12.22l-6.61,19.54h20.34ZM388.81,93.87l-7.01,21.24h-9.02l22.94-67.52h10.52l23.04,67.52h-9.32l-7.21-21.24h-23.94Z"></path><path class="cls-4" d="M438.29,104.49c3.91,2.4,9.62,4.41,15.63,4.41,8.92,0,14.13-4.71,14.13-11.52,0-6.31-3.61-9.92-12.72-13.42-11.02-3.91-17.83-9.62-17.83-19.14,0-10.52,8.72-18.33,21.84-18.33,6.91,0,11.92,1.6,14.93,3.31l-2.4,7.11c-2.2-1.2-6.71-3.2-12.82-3.2-9.22,0-12.72,5.51-12.72,10.12,0,6.31,4.11,9.42,13.42,13.02,11.42,4.41,17.23,9.92,17.23,19.84,0,10.42-7.71,19.44-23.64,19.44-6.51,0-13.62-1.9-17.23-4.31l2.2-7.31Z"></path></g></g></svg>